<svg xmlns="http://www.w3.org/2000/svg" xmlns:xlink="http://www.w3.org/1999/xlink" id="Capa_1" x="0px" y="0px" viewBox="0 0 240 70" style="enable-background:new 0 0 240 70;" xml:space="preserve"><style type="text/css">	.st0{fill:#FFFFFF;}</style><g>	<g>		<path class="st0" d="M35.8,54.7v-23H11.3v23H0V0h11.3v22.2h24.4V0H47v54.7H35.8z"></path>		<path class="st0" d="M50.9,43c0-7.4,5.6-11.7,15.7-12.3l10.1-0.6v-2.7c0-3.8-2.6-6-6.8-6c-4.1,0-6.7,2-7.2,5h-10    c0.4-7.9,7.1-13.3,17.7-13.3c10.3,0,17.1,5.4,17.1,13.6v27.9H76.9v-6.2h-0.2c-2.3,4.3-7.2,6.9-12.3,6.9    C56.7,55.3,50.9,50.3,50.9,43z M76.7,39.8v-3l-8.5,0.5c-4.1,0.3-6.4,2.2-6.4,5c0,3,2.5,4.9,6.2,4.9C72.7,47.3,76.7,44.2,76.7,39.8    z"></path>		<path class="st0" d="M92.4,57.6h10.7c0.9,2.8,4,4.7,8.2,4.7c5.7,0,8.8-3.1,8.8-7.8v-7.1h-0.2c-1.9,4.3-6.6,7.3-12.4,7.3    c-9.8,0-16.3-7.7-16.3-20.4c0-12.9,6.3-20.8,16.5-20.8c5.8,0,10.3,3.1,12.4,7.7h0.2v-7.1h10.8v40.1c0,9.7-8,15.9-20.1,15.9    C100.4,70,93.2,64.8,92.4,57.6z M120.2,34.3c0-7.3-3.5-12-9-12c-5.4,0-8.8,4.6-8.8,12s3.4,11.7,8.8,11.7    C116.7,46,120.2,41.7,120.2,34.3z"></path>		<path class="st0" d="M136.3,14.1h10.6v7.3h0.2c1.4-5.2,4.8-8,9.6-8c1.3,0,2.4,0.2,3.1,0.4v9.7c-0.9-0.4-2.4-0.6-4-0.6    c-5.4,0-8.6,3.3-8.6,9.1v22.7h-11L136.3,14.1L136.3,14.1z"></path>		<path class="st0" d="M159.6,34.3c0-13.2,7.9-21.1,19.9-21.1s19.9,8,19.9,21.1c0,13.4-7.8,21.2-19.9,21.2S159.6,47.7,159.6,34.3z     M188.3,34.4c0-8.1-3.5-12.7-8.8-12.7s-8.8,4.7-8.8,12.7c0,8.1,3.4,12.7,8.8,12.7C184.9,47.1,188.3,42.5,188.3,34.4z"></path>		<path class="st0" d="M203.2,69.6V61c0.4,0.1,2.4,0.1,2.8,0.1c4,0,6-1.3,6.7-4.5c0-0.2,0.4-1.8,0.4-2l-14-40.6h12l8.6,31.8h0.2    l8.5-31.8H240l-13.9,41.5c-3.4,10.4-8.5,14.2-18.7,14.2C207,69.7,203.6,69.7,203.2,69.6z"></path>	</g>	<g>		<path class="st0" d="M140.8,69.7h-7.7V57.5h7.7v1.6H135v3.6h5.5v1.6H135V68h5.8V69.7z"></path>		<path class="st0" d="M142.1,57.5h1.8v12.2h-1.8V57.5z"></path>		<path class="st0" d="M152.9,67.1c-0.3,1.6-1.8,2.8-3.8,2.8c-2.6,0-4.2-1.8-4.2-4.6c0-2.8,1.6-4.7,4.1-4.7c2.4,0,4,1.7,4,4.4v0.6    h-6.2v0.1c0,1.5,0.9,2.6,2.4,2.6c1,0,1.8-0.5,2-1.3h1.7V67.1z M146.7,64.4h4.4c0-1.4-0.9-2.3-2.2-2.3S146.8,63.1,146.7,64.4z"></path>		<path class="st0" d="M159.7,63.8c-0.2-0.9-0.9-1.7-2.1-1.7c-1.4,0-2.3,1.2-2.3,3.1c0,2,0.9,3.1,2.3,3.1c1.1,0,1.8-0.6,2.1-1.6h1.7    c-0.2,1.9-1.7,3.2-3.8,3.2c-2.5,0-4.2-1.7-4.2-4.6c0-2.8,1.6-4.6,4.2-4.6c2.3,0,3.7,1.5,3.8,3.2L159.7,63.8L159.7,63.8z"></path>		<path class="st0" d="M164.6,58.7v2.1h1.7v1.4h-1.7v4.9c0,0.8,0.3,1.1,1.1,1.1c0.2,0,0.5,0,0.6,0v1.4c-0.2,0.1-0.6,0.1-1,0.1    c-1.8,0-2.5-0.7-2.5-2.4v-5.1h-1.3v-1.4h1.3v-2.1C162.8,58.7,164.6,58.7,164.6,58.7z"></path>		<path class="st0" d="M167.3,60.8h1.7v1.5l0,0c0.3-1,1.1-1.7,2.1-1.7c0.3,0,0.5,0,0.6,0.1v1.7c-0.1-0.1-0.5-0.1-0.8-0.1    c-1.2,0-1.9,0.8-1.9,2v5.3h-1.8L167.3,60.8L167.3,60.8z"></path>		<path class="st0" d="M171.6,65.2c0-2.9,1.7-4.6,4.2-4.6s4.2,1.8,4.2,4.6c0,2.9-1.7,4.6-4.2,4.6C173.3,69.8,171.6,68.1,171.6,65.2z     M178.2,65.2c0-2-0.9-3.1-2.3-3.1c-1.4,0-2.3,1.1-2.3,3.1s0.9,3.1,2.3,3.1C177.3,68.3,178.2,67.2,178.2,65.2z"></path>		<path class="st0" d="M180.9,60.8h1.7v1.5l0,0c0.5-1,1.4-1.6,2.8-1.6c1.9,0,3.1,1.3,3.1,3.3v5.8h-1.8v-5.4c0-1.3-0.6-2.1-1.9-2.1    c-1.3,0-2.1,0.9-2.1,2.3v5.2h-1.8V60.8z"></path>		<path class="st0" d="M189.7,58.3c0-0.6,0.5-1,1-1c0.6,0,1,0.5,1,1c0,0.6-0.5,1-1,1S189.7,58.9,189.7,58.3z M189.8,60.8h1.8v8.9    h-1.8V60.8z"></path>		<path class="st0" d="M198.9,63.8c-0.2-0.9-0.9-1.7-2.1-1.7c-1.4,0-2.3,1.2-2.3,3.1c0,2,0.9,3.1,2.3,3.1c1.1,0,1.8-0.6,2.1-1.6h1.7    c-0.2,1.9-1.7,3.2-3.8,3.2c-2.5,0-4.2-1.7-4.2-4.6c0-2.8,1.6-4.6,4.2-4.6c2.3,0,3.7,1.5,3.8,3.2L198.9,63.8L198.9,63.8z"></path>	</g></g></svg>